<svg width="120" height="180" viewBox="0 0 120 180" xmlns="http://www.w3.org/2000/svg"><title>logo_sprite</title><g fill="none" fill-rule="evenodd"><circle stroke="#FFED00" stroke-width="8" cx="60" cy="60" r="56"/><g fill="#221F1F"><path d="M35.7 61.668c-.005 1.685 1.35 3.08 3.015 3.08 1.29 0 2.385-.84 2.816-1.99h2.792c.432 1.15 1.534 1.99 2.818 1.99 1.67 0 3.015-1.395 3.015-3.08H35.7zM30.6 46.71c-.01.334-.072.85-.15 1.185l-1.32 5.275c-.07.308-.13.83-.13 1.164v7.722l4.992.013.006-1.098c-.006-.337.27-.584.59-.584H51.45c.33 0 .59.247.59.584v1.056h14.715l.01-1.056c0-.337.257-.596.578-.596h17.15c.32-.015.584.26.577.596v1.084h5.13v-7.722c0-.333-.053-.856-.125-1.164l-1.323-5.288c-.08-.32-.117-.852-.117-1.186v-1.868H72.278l8.86-6.038-10.415-7.098-10.4 7.098 8.868 6.038-38.63.014.04 1.87zm47.742-7.92l-7.605 5.19-7.628-5.19 7.627-5.196 7.605 5.196zm4.5 8.91c0-.334.27-.596.577-.596h3.327c.328 0 .653.262.72.57l1.2 5.19c.065.306-.13.58-.45.58H83.43c-.32 0-.597-.274-.597-.595l.008-5.15zm-46.485 5.163c0 .322-.262.582-.576.582H31c-.327 0-.53-.26-.457-.582l1.192-5.177c.08-.32.405-.567.715-.567h3.334c.315 0 .57.246.577.58v5.163zM73.834 47.7c0-.334.256-.596.583-.596l6.492-.01c.32.01.576.272.576.607l.007 5.15c-.007.32-.263.595-.584.595h-6.493c-.327 0-.583-.275-.583-.596V47.7zm-9.006 0c-.013-.334.254-.596.576-.596h6.49c.322 0 .585.262.585.597v5.15c0 .32-.264.595-.576.595h-6.5c-.322 0-.576-.275-.576-.596V47.7zm-9.014 0c.006-.334.268-.58.575-.596h6.5c.32 0 .58.262.58.597v5.163c0 .307-.268.582-.58.582h-6.5c-.308 0-.576-.275-.576-.596V47.7zm-9.014 0c0-.334.26-.58.59-.596h6.49c.316.015.57.262.57.597v5.15c0 .32-.254.595-.57.595h-6.49c-.33 0-.59-.26-.59-.582V47.7zm-9.008 0c0-.32.26-.58.582-.596l6.487.015c.328 0 .583.26.583.58v5.163c0 .307-.255.582-.582.582h-6.486c-.32 0-.582-.26-.577-.596l-.005-5.15zM68.796 61.67c0 1.685 1.337 3.08 3.016 3.08 1.27 0 2.37-.84 2.81-2.002h2.79c.433 1.163 1.527 2.002 2.816 2.002 1.665 0 3.02-1.395 3.02-3.08H68.797zM67.258 70.96l.04-.283.037-.283.077-.243.116-.202.116-.202.155-.162.19-.163.156-.12.423-.203.463-.12.502-.083h1.002l.503.082.424.08.425.203.19.12.155.163.155.162.115.162.078.243.077.243.04.283.038.284V74l.038.404.04.406.153.364h-1.93l-.078-.283-.038-.283-.193.163-.23.162-.233.162-.23.08-.232.08-.27.042-.54.04h-.386l-.387-.08-.347-.162-.27-.203-.27-.242-.155-.324-.115-.365-.038-.447v-.364l.077-.285.115-.283.154-.203.154-.204.23-.16.195-.124.27-.08.54-.162.54-.08.58-.083.54-.12.192-.04.155-.123.115-.162.04-.243-.04-.123-.077-.162-.077-.12-.115-.082-.31-.08L70 70.19h-.193l-.154.042-.154.04-.154.08-.116.122-.077.123-.078.16-.04.204H67.26zm2.47 3.16l.308-.04.27-.08.194-.122.154-.203.116-.243.077-.324.038-.364v-.446l-.23.122-.31.08-.926.244-.27.16-.078.082-.077.122-.04.162-.037.162.038.162.04.162.076.122.077.08.115.082.154.04.308.04zm-5.14 1.217h-1.965l-.944-4.064-.944 4.064h-1.964L56.926 69.2h1.964l.982 3.983h.04l.824-3.982h1.887l.863 3.983.982-3.982h1.965l-1.846 6.137zm-16.045-6.16l.118.283.04.364-.04.12.515-.362.633-.526.277-.12.238-.042.355.04.356.04.316.123.277.16.277.203.197.203.2.2.157.244.04.04.396-.363.435-.324.316-.242.316-.162.158-.04.16-.04.275.04.317.04.276.04.238.122.237.12.238.122.198.162.316.404.158.202.12.242.078.243.158.525.04.566-.04.524-.08.486-.157.445-.16.362-.196.323-.238.283-.554.646-.395.445-.316.363-.237.403-.197.445v.04l.04.082.04.162-.04.12-.12.08-.158.123-.197.04-.158-.04-.118-.08-.12-.122-.118-.202-.118-.242-.04-.202-.04-.242-.04-.283.08-.646-.158.04-.158.04H49.65l-.12-.04-.157-.12-.08.08-.118.04-.237.04h-3.163l-.158-.04-.158-.04-.08-.04-.04-.04.04-.203.08-.162.117-.12.198-.122.197-.08.12-.122.078-.122V71.52l-.04-.444-.04-.162-.04-.12-.157-.243-.198-.16-.236-.203-.04-.12-.04-.162.04-.08.04-.082.117-.08.237-.08.277-.123.515-.202.475-.16.474-.123.475-.04.196.04.12.04.118.04.08.123zm.237 5.092l.277.24.237.162.08.162.078-.12.08-.082.276-.202.277-.202.08-.122.038-.16V71.56l-.04-.2-.04-.203-.077-.16-.12-.163-.118-.08-.158-.082-.198-.04h-.435l-.198.08-.04.04-.04.042-.04.242v3.11l.08.123zm4.034 0l.118.12.158.12.158.122.12.12.117-.322.238-.444.237-.485.158-.403.12-.445.04-.525-.04-.323-.04-.324-.08-.242-.118-.202-.16-.202-.157-.12-.198-.082h-.474l-.157.08-.08.04-.04.082-.038.202v2.95l.04.16.08.123zm-14.037-3.31v-.283l.077-.283.077-.243.117-.202.116-.202.308-.325.194-.12.424-.203.464-.12.463-.083h1.002l.502.082.462.08.424.203.155.12.194.163.115.162.153.162.078.243.078.243.04.283.037.284v3.484l.077.406.116.364h-1.89l-.077-.283-.038-.283-.193.163-.233.162-.23.162-.232.08-.27.08-.232.042-.54.04h-.425l-.347-.08-.346-.162-.308-.203-.232-.242-.193-.324-.114-.365-.04-.447.04-.364.077-.285.115-.283.116-.203.193-.204.193-.16.23-.124.27-.08.503-.162.578-.08.58-.083.502-.12.232-.04.154-.123.116-.162v-.365l-.078-.162-.077-.12-.155-.082-.27-.08-.31-.042h-.192l-.192.042-.154.04-.116.08-.116.122-.077.123-.077.16-.038.204h-1.775zm2.47 3.16l.308-.04.23-.08.232-.122.155-.203.116-.243.077-.324.04-.364v-.446l-.233.122-.31.08-.654.163-.31.08-.23.162-.116.08-.04.123-.077.162v.324l.078.162.077.122.077.08.116.082.154.04.31.04zm-7.197-5.105h1.884v1.075h.04l.117-.28.158-.238.196-.2.196-.16.275-.158.235-.08.315-.04.274-.04h.235l.235.04v1.793l-.353-.08h-.746l-.274.08-.235.16-.234.16-.158.238-.117.24-.078.238v3.267H34.05v-6.015zm-.89 1.165h-1.23v2.926l.04.12.08.12.08.04.078.08.12.04h.83v1.444l-.553.04-.515.04-.594-.04-.476-.08-.356-.16-.16-.08-.237-.242-.08-.16-.117-.36-.08-.48V70.18H29v-1.282h.99v-1.844h1.94v1.844h1.23v1.282zm44.043 5.497l-.194.474-.196.316-.273.277-.272.158-.312.16-.35.078h-.43l-.428.04h-.936v-1.58h.662l.196-.04.117-.04.156-.04.117-.078.077-.08.078-.117.04-.158v-.118l-.04-.356-.155-.433-.273-.79-1.52-4.146h2.026l1.13 3.87 1.132-3.87h1.95l-2.302 6.477zm2.6-.494l.038-.32.038-.32.077-.322.116-.32.155-.28.192-.28.193-.242.23-.24.462-.36.423-.322.885-.52.346-.28.27-.282.115-.12.078-.16.038-.16v-.362l-.038-.16-.077-.16-.114-.12-.116-.08-.154-.08-.154-.042-.192-.04-.308.04-.23.08-.193.12-.155.202-.115.2-.077.24-.04.24v.282h-1.538v-.32l.077-.562.078-.28.076-.28.115-.202.156-.24.154-.2.192-.16.192-.16.23-.162.232-.12.27-.08.268-.08.308-.04h.308l.462.04.46.08.425.2.384.24.155.12.154.16.114.202.116.2.115.2.038.24.04.242.038.28-.038.482-.154.4-.154.32-.27.322-.27.24-.306.24-.73.482-.617.4-.268.242-.308.28h3.155v1.443H79.8zm9.267-7.015l.114.083.038.082v5.622l.037.164.075.123.265.248.226.205.076.082v.246l-.114.083-.15.08h-3.555l-.19-.08-.113-.04-.037-.042.037-.204.076-.164.152-.124.15-.123.265-.164.076-.122v-3.94l-.115-.163-.34-.287-.226-.205-.04-.083-.037-.08.037-.043.04-.08.112-.084.19-.08h.263l.19-.043.19-.08.566-.29.417-.245.378-.164.302-.123h.492l.15.04z"/></g><circle stroke="#FFED00" stroke-width="6" cx="30" cy="150" r="27"/><path d="M16.634 154.83c-.004.888.732 1.624 1.634 1.624.7 0 1.293-.442 1.527-1.05h1.513c.234.608.832 1.05 1.528 1.05.905 0 1.635-.736 1.635-1.624h-7.836zm-2.767-7.883c-.004.175-.04.447-.08.624l-.716 2.78c-.038.164-.07.44-.07.615v4.07l2.707.007.003-.58c-.003-.176.146-.306.32-.306h9.143c.178 0 .32.13.32.307v.557h7.98l.005-.557c0-.177.14-.314.313-.314h9.3c.174-.008.317.136.313.313v.572h2.78v-4.07c0-.176-.027-.45-.066-.614l-.718-2.786c-.044-.17-.064-.45-.064-.625v-.986h-8.87l4.805-3.183-5.647-3.74-5.64 3.74 4.81 3.184-20.947.007.02.987zm25.887-4.176l-4.123 2.736-4.135-2.735 4.136-2.738 4.124 2.74zm2.44 4.698c0-.176.147-.314.314-.314h1.804c.178 0 .354.138.39.3l.65 2.735c.036.16-.07.306-.243.306h-2.595c-.174 0-.324-.145-.324-.314l.005-2.714zm-25.205 2.72c0 .17-.143.308-.313.308h-2.594c-.177 0-.287-.137-.248-.307l.646-2.73c.044-.168.22-.298.39-.298h1.807c.17 0 .31.13.312.306v2.72zm20.32-2.72c0-.176.14-.314.317-.314l3.52-.006c.174.006.313.144.313.32l.003 2.714c-.003.17-.142.314-.316.314h-3.52c-.178 0-.317-.145-.317-.314v-2.714zm-4.883 0c-.007-.176.138-.314.312-.314h3.52c.173 0 .316.138.316.314v2.714c0 .17-.143.314-.312.314H32.74c-.175 0-.313-.145-.313-.314v-2.714zm-4.888 0c.002-.176.145-.306.31-.314h3.526c.174 0 .315.138.315.314v2.72c0 .163-.145.308-.314.308H27.85c-.165 0-.31-.145-.31-.314v-2.714zm-4.888 0c0-.176.14-.306.32-.314h3.52c.17.008.308.138.308.314v2.714c0 .17-.138.314-.31.314h-3.52c-.177 0-.318-.137-.318-.307v-2.722zm-4.885 0c0-.17.142-.306.316-.314l3.517.008c.177 0 .316.137.316.306v2.72c0 .163-.14.308-.316.308h-3.517c-.174 0-.316-.137-.313-.314l-.003-2.714zm16.81 7.362c0 .888.727 1.624 1.637 1.624.69 0 1.285-.442 1.523-1.055h1.514c.235.612.828 1.054 1.527 1.054.903 0 1.638-.736 1.638-1.624h-7.837z" fill="#171717"/></g></svg>