<?xml version="1.0" encoding="UTF-8" standalone="no"?>
<svg width="140px" height="140px" viewBox="0 0 140 140" version="1.1" xmlns="http://www.w3.org/2000/svg" xmlns:xlink="http://www.w3.org/1999/xlink" xmlns:sketch="http://www.bohemiancoding.com/sketch/ns">
    <!-- Generator: Sketch 3.3.3 (12072) - http://www.bohemiancoding.com/sketch -->
    <title>logo</title>
    <desc>Created with Sketch.</desc>
    <defs></defs>
    <g id="Page-1" stroke="none" stroke-width="1" fill="none" fill-rule="evenodd" sketch:type="MSPage">
        <g id="assets" sketch:type="MSArtboardGroup" transform="translate(-30.000000, -30.000000)">
            <g id="Oval-2-+-Fill-1-+-Group" sketch:type="MSLayerGroup" transform="translate(36.000000, 35.000000)">
                <circle id="Oval-2" stroke="#FFED00" stroke-width="10" sketch:type="MSShapeGroup" cx="65" cy="65" r="65"></circle>
                <path d="M33.7398693,69.3617888 C33.7317647,71.5700208 35.5003922,73.3983101 37.6705882,73.3983101 C39.3511111,73.3983101 40.7811765,72.2990273 41.343268,70.7905342 L44.9822222,70.7905342 C45.5464052,72.2990273 46.983268,73.3983101 48.6577778,73.3983101 C50.8355556,73.3983101 52.5895425,71.5700208 52.5895425,69.3617888 L33.7398693,69.3617888 L33.7398693,69.3617888 Z M27.0854902,49.7588967 C27.0752941,50.1960322 26.9921569,50.8726791 26.8894118,51.3114256 L25.1704575,58.2247706 C25.0763399,58.6286106 25,59.3130444 25,59.7504483 L25,69.870348 L31.5108497,69.8878012 L31.5186928,68.4493894 C31.5108497,68.0087634 31.8695425,67.6841339 32.2881046,67.6841339 L54.2794771,67.6841339 C54.707451,67.6841339 55.0496732,68.0087634 55.0496732,68.4493894 L55.0496732,69.8335621 L74.2389542,69.8335621 L74.2543791,68.4493894 C74.2543791,68.0087634 74.5877124,67.6682918 75.0067974,67.6682918 L97.3730719,67.6682918 C97.7911111,67.6492275 98.134902,68.0087634 98.1254902,68.4493894 L98.1254902,69.870348 L104.815425,69.870348 L104.815425,59.7504483 C104.815425,59.3130444 104.747451,58.6286106 104.653333,58.2247706 L102.927582,51.2937039 C102.824314,50.8726791 102.774641,50.1769679 102.774641,49.7398325 L102.774641,47.2904779 L81.4423529,47.2904779 L92.9986928,39.3774676 L79.4141176,30.0749145 L65.8491503,39.3774676 L77.4162092,47.2904779 L27.0345098,47.3095422 L27.0854902,49.7588967 L27.0854902,49.7588967 Z M89.3505882,39.3774676 L79.4324183,46.1783066 L69.4849673,39.3774676 L79.4324183,32.5666938 L89.3505882,39.3774676 L89.3505882,39.3774676 Z M95.2214379,51.0560719 C95.2214379,50.6173255 95.5712418,50.2736318 95.9722876,50.2736318 L100.312941,50.2736318 C100.740131,50.2736318 101.164444,50.6173255 101.250719,51.0214341 L102.814902,57.822273 C102.901176,58.2247706 102.646536,58.5843064 102.228497,58.5843064 L95.989281,58.5843064 C95.5712418,58.5843064 95.2104575,58.2247706 95.2104575,57.8032088 L95.2214379,51.0560719 L95.2214379,51.0560719 Z M34.5942484,57.822273 C34.5942484,58.2438348 34.252549,58.5843064 33.8439216,58.5843064 L27.6060131,58.5843064 C27.1793464,58.5843064 26.9142484,58.2438348 27.0091503,57.822273 L28.5631373,51.0372762 C28.6664052,50.6173255 29.0915033,50.2940386 29.4956863,50.2940386 L33.8439216,50.2940386 C34.252549,50.2940386 34.5864052,50.6173255 34.5942484,51.0560719 L34.5942484,57.822273 L34.5942484,57.822273 Z M83.4721569,51.0560719 C83.4721569,50.6173255 83.8054902,50.2736318 84.2326797,50.2736318 L92.699085,50.2594007 C93.1176471,50.2736318 93.4520261,50.6173255 93.4520261,51.0560719 L93.4611765,57.8032088 C93.4520261,58.2247706 93.1176471,58.5843064 92.699085,58.5843064 L84.2326797,58.5843064 C83.8054902,58.5843064 83.4721569,58.2247706 83.4721569,57.8032088 L83.4721569,51.0560719 L83.4721569,51.0560719 Z M71.7265359,51.0560719 C71.7090196,50.6173255 72.0577778,50.2736318 72.4776471,50.2736318 L80.9424837,50.2736318 C81.3618301,50.2736318 81.7045752,50.6173255 81.7045752,51.0560719 L81.7045752,57.8032088 C81.7045752,58.2247706 81.3618301,58.5843064 80.9547712,58.5843064 L72.4776471,58.5843064 C72.0577778,58.5843064 71.7265359,58.2247706 71.7265359,57.8032088 L71.7265359,51.0560719 L71.7265359,51.0560719 Z M59.9701961,51.0560719 C59.9777778,50.6173255 60.3197386,50.2940386 60.7207843,50.2736318 L69.1984314,50.2736318 C69.6162092,50.2736318 69.9571242,50.6173255 69.9571242,51.0560719 L69.9571242,57.822273 C69.9571242,58.2247706 69.6052288,58.5843064 69.1984314,58.5843064 L60.7207843,58.5843064 C60.3197386,58.5843064 59.9701961,58.2247706 59.9701961,57.8032088 L59.9701961,51.0560719 L59.9701961,51.0560719 Z M48.2141176,51.0560719 C48.2141176,50.6173255 48.5552941,50.2940386 48.983268,50.2736318 L57.4491503,50.2736318 C57.8601307,50.2940386 58.191634,50.6173255 58.191634,51.0560719 L58.191634,57.8032088 C58.191634,58.2247706 57.8601307,58.5843064 57.4491503,58.5843064 L48.983268,58.5843064 C48.5552941,58.5843064 48.2141176,58.2438348 48.2141176,57.822273 L48.2141176,51.0560719 L48.2141176,51.0560719 Z M36.4661438,51.0560719 C36.4661438,50.6363897 36.8070588,50.2940386 37.2256209,50.2736318 L45.6852288,50.2940386 C46.1118954,50.2940386 46.4449673,50.6363897 46.4449673,51.0560719 L46.4449673,57.822273 C46.4449673,58.2247706 46.1118954,58.5843064 45.6852288,58.5843064 L37.2256209,58.5843064 C36.8070588,58.5843064 36.4661438,58.2438348 36.4734641,57.8032088 L36.4661438,51.0560719 L36.4661438,51.0560719 Z M76.9011765,69.3617888 C76.9011765,71.5700208 78.6454902,73.3983101 80.8345098,73.3983101 C82.4912418,73.3983101 83.9257516,72.2990273 84.4980392,70.7749606 L88.1398693,70.7749606 C88.7027451,72.2990273 90.1294118,73.3983101 91.8109804,73.3983101 C93.9827451,73.3983101 95.7503268,71.5700208 95.7503268,69.3617888 L76.9011765,69.3617888 L76.9011765,69.3617888 Z" id="Fill-1" fill="#221F1F" sketch:type="MSShapeGroup"></path>
                <g id="Group" transform="translate(25.000000, 75.000000)" fill="#221F1F" sketch:type="MSShapeGroup">
                    <path d="M5.4368932,4.96020655 L3.83144577,4.96020655 L3.83144577,8.76683971 L3.88379732,8.92260918 L3.9871784,9.0789112 L4.09055949,9.13163318 L4.19367617,9.23574577 L4.3494088,9.28766893 L5.4368932,9.28766893 L5.4368932,11.1651571 L4.7119036,11.2170802 L4.03926555,11.2690034 L3.2621888,11.2170802 L2.64058029,11.1124351 L2.1749688,10.9042099 L1.96794223,10.8000973 L1.65674137,10.4866945 L1.55336029,10.278203 L1.39842086,9.80956323 L1.29424657,9.18382261 L1.29424657,4.96020655 L0,4.96020655 L0,3.29174241 L1.29424657,3.29174241 L1.29424657,0.893158784 L3.83144577,0.893158784 L3.83144577,3.29174241 L5.4368932,3.29174241 L5.4368932,4.96020655" id="Fill-4"></path>
                    <path d="M6.60194175,3.44398428 L9.06408927,3.44398428 L9.06408927,4.84284968 L9.11542766,4.84284968 L9.26970478,4.47950458 L9.47479643,4.1693513 L9.73122648,3.90974347 L9.98765652,3.70253356 L10.3467634,3.49532365 L10.6542699,3.39158637 L11.064977,3.33998237 L11.4238219,3.28758446 L11.7315904,3.28758446 L12.038835,3.33998237 L12.038835,5.67116006 L11.5773133,5.5682167 L10.6026695,5.5682167 L10.2438246,5.67116006 L9.93631813,5.87916388 L9.62881162,6.08610916 L9.42293417,6.39732099 L9.26970478,6.70800354 L9.16650413,7.01921537 L9.16650413,11.2690034 L6.60194175,11.2690034 L6.60194175,3.44398428" id="Fill-5"></path>
                    <path d="M12.7805221,5.97575752 L12.7805221,5.60703534 L12.8812182,5.23804403 L12.9821718,4.92180421 L13.1333447,4.65858502 L13.2850327,4.39482755 L13.687817,3.9728156 L13.9404586,3.81536854 L14.4946734,3.55134193 L15.1001376,3.39335659 L15.7056017,3.28758446 L17.0164536,3.28758446 L17.672137,3.39335659 L18.2770861,3.49832129 L18.8320735,3.76207876 L19.0342383,3.92033324 L19.2858497,4.13080094 L19.4372801,4.34153777 L19.6386723,4.55281289 L19.740141,4.86932185 L19.8408371,5.18502339 L19.8910564,5.55374557 L19.9415332,5.92246775 L19.9415332,10.4553282 L20.0424868,10.9828432 L20.1941748,11.4565301 L17.7228714,11.4565301 L17.6221753,11.0878079 L17.5714409,10.7190857 L17.3190569,10.9303608 L17.0164536,11.1410977 L16.7138503,11.3518345 L16.411762,11.4565301 L16.0584243,11.5623022 L15.7560785,11.615592 L15.0499183,11.6680743 L14.4946734,11.6680743 L14.0411547,11.5623022 L13.5871209,11.3518345 L13.1843366,11.0878079 L12.8812182,10.7723755 L12.6288342,10.3503635 L12.4781763,9.87586924 L12.4271845,9.29641023 L12.4781763,8.82191592 L12.5788724,8.45292461 L12.7295303,8.08420243 L12.8812182,7.82044496 L13.1333447,7.55641835 L13.3859863,7.34675808 L13.687817,7.18769618 L14.0411547,7.08273147 L14.6970957,6.87226377 L15.4529602,6.76649165 L16.2098548,6.66071952 L16.8652807,6.50327246 L17.1683991,6.45025182 L17.3697912,6.29199734 L17.5214792,6.08126051 L17.5214792,5.60703534 L17.419753,5.39602937 L17.3190569,5.23804403 L17.1174072,5.13254104 L16.7645846,5.02730719 L16.3607701,4.97401742 L16.1091587,4.97401742 L15.8570322,5.02730719 L15.6546099,5.08005869 L15.503952,5.18502339 L15.3522641,5.34300874 L15.251568,5.50207064 L15.1506144,5.71253833 L15.1001376,5.97575752 L12.7805221,5.97575752 L12.7805221,5.97575752 Z M16.0079475,10.0863369 L16.0079475,10.0863369 L16.411762,10.0338546 L16.7138503,9.92915901 L17.0164536,9.77063539 L17.2183608,9.50714706 L17.3697912,9.1906381 L17.4707449,8.76943357 L17.5214792,8.29493927 L17.5214792,7.71548025 L17.2183608,7.87373474 L16.8150614,7.9784303 L15.9577282,8.18943628 L15.5539138,8.29493927 L15.251568,8.50540696 L15.1001376,8.61064081 L15.0499183,8.76943357 L14.9484496,8.97909384 L14.9484496,9.40110579 L15.0499183,9.61211177 L15.1506144,9.77063539 L15.251568,9.87586924 L15.4032559,9.98137222 L15.6046481,10.0338546 L16.0079475,10.0863369 L16.0079475,10.0863369 Z" id="Fill-6"></path>
                    <path d="M25.5462669,3.65609758 L25.5462669,3.65609758 L25.7012155,4.02380549 L25.752953,4.49645778 L25.7012155,4.65481375 L26.3732753,4.18162466 L27.2000198,3.49774161 L27.5621824,3.34072765 L27.8728715,3.28758446 L28.3377173,3.34072765 L28.802827,3.39306564 L29.2159353,3.5506164 L29.577834,3.76077355 L29.9394687,4.02380549 L30.1981563,4.28710583 L30.4568439,4.54933257 L30.66353,4.8649709 L30.7152675,4.91730889 L31.2326427,4.4446566 L31.8009635,4.02380549 L32.2140718,3.70843556 L32.6279719,3.49774161 L32.8343941,3.44620882 L33.0418721,3.39306564 L33.4035068,3.44620882 L33.816879,3.49774161 L34.1785137,3.5506164 L34.4889389,3.70843556 L34.798836,3.86625473 L35.1089972,4.02380549 L35.3674208,4.23423104 L35.781321,4.75948972 L35.9877431,5.02252166 L36.1432197,5.33735479 L36.2464307,5.65352992 L36.4531168,6.33607096 L36.5048544,7.072292 L36.4531168,7.75483304 L36.3499058,8.3858413 L36.1432197,8.96531676 L35.9360056,9.43770066 L35.6781099,9.85774656 L35.3674208,10.2254545 L34.6438874,11.0663515 L34.1273041,11.6450218 L33.713404,12.1182108 L33.4035068,12.6429327 L33.1450832,13.2221398 L33.1450832,13.2736726 L33.1960288,13.3794222 L33.2482942,13.5898477 L33.1960288,13.7468617 L33.0418721,13.851806 L32.8343941,14.010162 L32.5762344,14.0625 L32.3692843,14.010162 L32.2140718,13.9046808 L32.0596511,13.7468617 L31.9041746,13.4840981 L31.748962,13.169265 L31.6974885,12.9062331 L31.645751,12.5913999 L31.5940134,12.2228868 L31.6974885,11.3825266 L31.4902744,11.4340594 L31.2835883,11.4872026 L26.9935976,11.4872026 L26.8383851,11.4340594 L26.6316989,11.2773138 L26.5282239,11.3825266 L26.3732753,11.4340594 L26.0633781,11.4872026 L21.9278081,11.4872026 L21.721122,11.4340594 L21.5146998,11.3825266 L21.4104329,11.3296518 L21.3592233,11.2773138 L21.4104329,11.0140135 L21.5146998,10.8033195 L21.6691205,10.6463056 L21.9278081,10.4884864 L22.1859678,10.3840788 L22.3417082,10.2254545 L22.4449193,10.0676353 L22.4449193,6.70458408 L22.3926539,6.12591381 L22.3417082,5.91521986 L22.2891788,5.7582059 L22.0827567,5.44256757 L21.824333,5.23267882 L21.5146998,4.96937848 L21.4626983,4.81263291 L21.4104329,4.60167056 L21.4626983,4.49645778 L21.5146998,4.39178181 L21.6691205,4.28710583 L21.9795456,4.18162466 L22.3417082,4.02380549 L23.0132401,3.76077355 L23.6338264,3.5506164 L24.2541487,3.39306564 L24.874735,3.34072765 L25.1323667,3.39306564 L25.2873153,3.44620882 L25.4430558,3.49774161 L25.5462669,3.65609758 L25.5462669,3.65609758 Z M25.8561641,10.2785977 L25.8561641,10.2785977 L26.2180628,10.5931624 L26.5282239,10.8033195 L26.6316989,11.0140135 L26.735174,10.8564627 L26.8383851,10.7517868 L27.2000198,10.4884864 L27.5621824,10.2254545 L27.6653935,10.0676353 L27.717131,9.85774656 L27.717131,6.75692207 L27.6653935,6.49442693 L27.6139199,6.23139499 L27.5107089,6.02150624 L27.3554963,5.81054388 L27.2000198,5.70586791 L26.9935976,5.60065513 L26.735174,5.54831714 L26.1668532,5.54831714 L25.9079016,5.65352992 L25.8561641,5.70586791 L25.8046905,5.7582059 L25.752953,6.07357582 L25.752953,10.1207785 L25.8561641,10.2785977 L25.8561641,10.2785977 Z M31.1291677,10.2785977 L31.1291677,10.2785977 L31.2835883,10.4356116 L31.4902744,10.5931624 L31.6974885,10.7517868 L31.8521731,10.9093375 L32.0073857,10.4884864 L32.3180747,9.91088975 L32.6279719,9.27988149 L32.8343941,8.75435441 L32.9896066,8.17595254 L33.0418721,7.4931431 L32.9896066,7.072292 L32.9376052,6.65144089 L32.8343941,6.33607096 L32.6799734,6.07357582 L32.4727594,5.81054388 L32.2660733,5.65352992 L32.0073857,5.54831714 L31.3870634,5.54831714 L31.1801133,5.65352992 L31.0774301,5.70586791 L31.0251647,5.81054388 L30.9739551,6.07357582 L30.9739551,9.91088975 L31.0251647,10.1207785 L31.1291677,10.2785977 L31.1291677,10.2785977 Z" id="Fill-7"></path>
                    <path d="M46.5191893,11.6680743 L43.9513574,11.6680743 L42.7180532,6.38158883 L41.4852736,11.6680743 L38.9184906,11.6680743 L36.5048544,3.68665541 L39.0718996,3.68665541 L40.3563401,8.86625051 L40.4074765,8.86625051 L41.4852736,3.68665541 L43.9513574,3.68665541 L45.0800286,8.86625051 L46.3642068,3.68665541 L48.9320388,3.68665541 L46.5191893,11.6680743" id="Fill-8"></path>
                    <path d="M50.0106186,5.97575752 L50.0106186,5.97575752 L50.0621341,5.60703534 L50.1118466,5.23804403 L50.2128169,4.92180421 L50.3634997,4.65858502 L50.5159856,4.39482755 L50.7174111,4.18409071 L50.9693219,3.9728156 L51.1712626,3.81536854 L51.7250541,3.55134193 L52.3308763,3.39335659 L52.9879563,3.28758446 L54.2977376,3.28758446 L54.954045,3.39335659 L55.5086092,3.49832129 L56.0639462,3.76207876 L56.3158569,3.92033324 L56.5172825,4.13080094 L56.7199959,4.34153777 L56.8701636,4.55281289 L56.9721642,4.86932185 L57.0726195,5.18502339 L57.1231046,5.55374557 L57.1738474,5.92246775 L57.1738474,9.92915901 L57.2235598,10.4553282 L57.2748177,10.9828432 L57.4757282,11.4565301 L54.954045,11.4565301 L54.8530746,11.0878079 L54.802847,10.7190857 L54.5504211,10.9303608 L54.2485403,11.1410977 L53.9448565,11.3518345 L53.6427182,11.4565301 L53.3408374,11.5623022 L52.9879563,11.615592 L52.2811638,11.6680743 L51.7770848,11.6680743 L51.2717178,11.5623022 L50.8183815,11.3518345 L50.4644701,11.0878079 L50.1118466,10.7723755 L49.9101634,10.3503635 L49.7589655,9.87586924 L49.7087379,9.29641023 L49.7087379,8.82191592 L49.8097082,8.45292461 L49.960391,8.08420243 L50.1625893,7.82044496 L50.3634997,7.55641835 L50.6661532,7.34675808 L50.9190943,7.18769618 L51.2717178,7.08273147 L51.97748,6.87226377 L52.6842725,6.76649165 L53.4412926,6.66071952 L54.1467972,6.50327246 L54.3997383,6.45025182 L54.6014214,6.29199734 L54.7526194,6.08126051 L54.802847,5.76502069 L54.7526194,5.60703534 L54.651649,5.39602937 L54.5504211,5.23804403 L54.3997383,5.13254104 L53.9955993,5.02730719 L53.5919754,4.97401742 L53.3408374,4.97401742 L53.1386391,5.02730719 L52.9359257,5.08005869 L52.7350153,5.18502339 L52.5833022,5.34300874 L52.4825894,5.50207064 L52.3821342,5.71253833 L52.3308763,5.97575752 L50.0106186,5.97575752 L50.0106186,5.97575752 Z M53.2390943,10.0863369 L53.2390943,10.0863369 L53.6427182,10.0338546 L53.9955993,9.92915901 L54.2485403,9.77063539 L54.4499659,9.50714706 L54.6014214,9.1906381 L54.7023918,8.76943357 L54.7526194,8.29493927 L54.7526194,7.71548025 L54.4499659,7.87373474 L54.046342,7.9784303 L52.8354705,8.29493927 L52.4825894,8.50540696 L52.3821342,8.61064081 L52.2811638,8.76943357 L52.2304211,8.97909384 L52.1801935,9.1906381 L52.2304211,9.40110579 L52.2811638,9.61211177 L52.3821342,9.77063539 L52.4825894,9.87586924 L52.6340449,9.98137222 L52.8354705,10.0338546 L53.2390943,10.0863369 L53.2390943,10.0863369 Z" id="Fill-9"></path>
                    <path d="M63.0115862,12.1106682 L63.0115862,12.1106682 L62.7570734,12.7270913 L62.5020401,13.1370783 L62.1457742,13.4972268 L61.7882071,13.7034007 L61.3814551,13.9085254 L60.9229156,14.0108254 L60.3615822,14.0108254 L59.8015499,14.0625 L58.5781709,14.0625 L58.5781709,12.0078435 L59.4439828,12.0078435 L59.6995366,11.9556443 L59.8528168,11.9052812 L60.0560627,11.8533443 L60.2093429,11.7505197 L60.3108358,11.6482196 L60.4123286,11.4939827 L60.4648967,11.2888581 L60.4648967,11.1346211 L60.4123286,10.6721726 L60.2093429,10.107424 L59.8528168,9.07970235 L57.8640777,3.68665541 L60.5146021,3.68665541 L61.9927542,8.72007845 L63.4706461,3.68665541 L66.0194175,3.68665541 L63.0115862,12.1106682" id="Fill-10"></path>
                    <path d="M66.407767,11.2690034 L66.407767,11.2690034 L66.4588735,10.8514297 L66.5079255,10.4346549 L66.6085976,10.0170813 L66.7598626,9.60004019 L66.96095,9.23519584 L67.2126302,8.86981886 L67.4640537,8.5566386 L67.7652996,8.24425727 L68.3685618,7.77475318 L68.9220016,7.3571795 L70.0789604,6.67915488 L70.5309576,6.31457684 L70.8838237,5.94946617 L71.0343182,5.79287604 L71.1349903,5.58462182 L71.1850695,5.3763676 L71.1850695,4.9065972 L71.1349903,4.69754405 L71.0343182,4.48902352 L70.8838237,4.3326997 L70.7330723,4.22803996 L70.5309576,4.12444547 L70.3296134,4.07144983 L70.0789604,4.01951943 L69.6765288,4.07144983 L69.3755397,4.17690849 L69.1238594,4.3326997 L68.9220016,4.59368325 L68.7715071,4.85386787 L68.6708349,5.16704813 L68.6202421,5.4802284 L68.6202421,5.84507275 L66.6085976,5.84507275 L66.6085976,5.42749907 L66.7087561,4.69754405 L66.8107122,4.3326997 L66.9108707,3.96758903 L67.0611084,3.70687179 L67.2627095,3.39449046 L67.4640537,3.13324059 L67.7152203,2.92498637 L67.9671574,2.71646584 L68.2684033,2.50741269 L68.5701628,2.35135517 L68.9220016,2.24616282 L69.2735835,2.14230202 L69.6765288,2.09037162 L70.0789604,2.09037162 L70.6824794,2.14230202 L71.285228,2.24616282 L71.8396951,2.50741269 L72.3422852,2.82032664 L72.5426021,2.97691677 L72.7442032,3.18570361 L72.8944409,3.44615455 L73.0464763,3.70687179 L73.1972277,3.96758903 L73.2462796,4.28076929 L73.2978998,4.59368325 L73.347979,4.95879391 L73.2978998,5.58462182 L73.0965556,6.1060563 L72.8944409,6.52283106 L72.5426021,6.94040474 L72.1907634,7.25278608 L71.7891022,7.56649896 L70.8332308,8.19179425 L70.0283675,8.71296242 L69.6765288,9.02694161 L69.2735835,9.39125335 L73.3980583,9.39125335 L73.3980583,11.2690034 L66.407767,11.2690034" id="Fill-11"></path>
                    <path d="M78.5234641,2.54231236 L78.5234641,2.54231236 L78.6723924,2.64968709 L78.7216145,2.75597172 L78.7216145,10.0675368 L78.7708366,10.2814687 L78.8702904,10.4408956 L79.216107,10.7619297 L79.5121967,11.0284589 L79.6116505,11.1352885 L79.6116505,11.45496 L79.4627222,11.5620622 L79.2658339,11.6680743 L74.619018,11.6680743 L74.3716456,11.5620622 L74.2227172,11.5089199 L74.1747573,11.45496 L74.2227172,11.1884309 L74.3224235,10.9753165 L74.5203215,10.8142545 L74.7174622,10.6548275 L75.0632788,10.4408956 L75.1622277,10.2814687 L75.1622277,5.15800439 L75.0143091,4.94489008 L74.5695435,4.57125872 L74.2732014,4.30418452 L74.2227172,4.19708231 L74.1747573,4.09107021 L74.2227172,4.03711032 L74.2732014,3.93082568 L74.4213725,3.82372348 L74.6687449,3.71743885 L75.0143091,3.71743885 L75.2611767,3.66347896 L75.509054,3.55746685 L76.2496569,3.18329044 L76.7941287,2.8628014 L77.2881163,2.64968709 L77.683155,2.48944257 L78.3265758,2.48944257 L78.5234641,2.54231236" id="Fill-12"></path>
                </g>
            </g>
        </g>
    </g>
</svg>