<svg width="120" height="200" viewBox="0 0 120 200" xmlns="http://www.w3.org/2000/svg"><title>logo_sprite</title><g fill="none" fill-rule="evenodd"><g transform="translate(4 4)"><circle stroke="#FFED00" stroke-width="8" cx="56" cy="56" r="56"/><path d="M31.7 57.668c-.005 1.685 1.35 3.08 3.015 3.08 1.29 0 2.385-.84 2.816-1.99h2.793c.432 1.15 1.534 1.99 2.818 1.99 1.67 0 3.016-1.395 3.016-3.08H31.7zM26.6 42.71c-.01.334-.072.85-.15 1.185l-1.32 5.275c-.07.308-.13.83-.13 1.164v7.722l4.992.013.006-1.1c-.006-.336.27-.583.59-.583H47.45c.33 0 .59.247.59.584v1.057h14.715l.01-1.056c0-.336.257-.595.578-.595h17.15c.32-.015.584.26.577.596v1.085h5.13v-7.722c0-.333-.053-.856-.125-1.164l-1.323-5.29c-.08-.32-.117-.85-.117-1.185v-1.868H68.278l8.86-6.038-10.415-7.1-10.4 7.1 8.868 6.037-38.63.014.04 1.87zm47.742-7.92l-7.605 5.19-7.628-5.19 7.626-5.196 7.605 5.196zm4.5 8.91c0-.334.27-.596.577-.596h3.326c.328 0 .653.262.72.57l1.2 5.19c.065.306-.13.58-.45.58H79.43c-.32 0-.597-.274-.597-.595l.008-5.15zm-46.485 5.163c0 .322-.262.582-.576.582H27c-.327 0-.53-.26-.457-.582l1.192-5.177c.08-.32.405-.567.715-.567h3.334c.315 0 .57.245.577.58v5.162zM69.834 43.7c0-.334.256-.596.583-.596l6.492-.01c.32.01.575.272.575.607l.007 5.15c-.007.32-.263.596-.584.596h-6.493c-.327 0-.583-.275-.583-.596V43.7zm-9.006 0c-.013-.334.254-.596.576-.596h6.49c.322 0 .585.262.585.597v5.15c0 .32-.265.596-.577.596h-6.5c-.322 0-.576-.275-.576-.596V43.7zm-9.014 0c.006-.334.268-.58.575-.596h6.5c.32 0 .58.262.58.597v5.164c0 .307-.27.582-.58.582h-6.5c-.31 0-.577-.275-.577-.596V43.7zm-9.014 0c0-.334.26-.58.59-.596h6.49c.316.015.57.262.57.597v5.15c0 .32-.254.596-.57.596h-6.49c-.33 0-.59-.26-.59-.582V43.7zm-9.008 0c0-.32.26-.58.582-.596l6.487.015c.33 0 .584.26.584.58v5.162c0 .307-.255.582-.582.582h-6.486c-.32 0-.582-.26-.577-.596l-.006-5.15zm31.004 13.97c0 1.685 1.337 3.08 3.016 3.08 1.27 0 2.37-.84 2.81-2.002h2.79c.433 1.163 1.527 2.002 2.816 2.002 1.665 0 3.02-1.395 3.02-3.08h-14.45zm-1.538 9.29l.04-.283.037-.283.077-.243.116-.2.116-.203.155-.162.19-.163.155-.12.423-.203.463-.12.503-.084h1.002l.503.082.424.08.425.203.19.12.155.164.155.162.115.162.078.243.077.244.04.283.038.284V70l.038.404.04.406.153.364h-1.93l-.078-.283-.038-.282-.193.163-.23.163-.233.162-.23.08-.232.08-.27.042-.54.04h-.386l-.387-.08-.348-.162-.27-.203-.27-.242-.155-.324-.115-.365-.038-.446v-.364l.077-.285.116-.283.154-.203.154-.205.23-.16.195-.124.27-.08.54-.16.54-.08.58-.084.54-.12.19-.04.156-.123.115-.162.04-.242-.04-.123-.076-.162-.077-.12-.115-.082-.31-.08-.302-.04h-.193l-.154.042-.154.04-.155.08-.116.122-.078.123-.078.16-.04.204H63.26zm2.47 3.16l.308-.04.27-.08.194-.122.154-.203.116-.243.077-.324.038-.364v-.446l-.23.122-.31.08-.926.244-.27.16-.08.082-.076.122-.04.162-.037.162.038.162.04.162.076.122.078.08.115.082.154.04.308.04zm-5.14 1.217h-1.965l-.944-4.064-.945 4.064H54.77L52.927 65.2h1.964l.982 3.983h.04l.824-3.982h1.887l.863 3.984.982-3.982h1.965l-1.846 6.137zm-16.045-6.16l.118.283.04.364-.04.12.516-.362.633-.526.276-.12.238-.042.355.04.355.04.316.123.278.16.277.203.197.203.2.2.157.244.04.04.395-.363.435-.324.316-.242.316-.162.158-.04.16-.04.275.04.317.04.276.04.238.122.237.12.238.122.2.162.315.404.158.202.12.242.078.243.16.525.04.566-.04.524-.08.486-.158.445-.16.36-.196.324-.238.283-.554.646-.395.445-.317.363-.237.404-.197.445v.04l.04.08.04.163-.04.12-.12.08-.16.123-.196.04-.158-.04-.118-.08-.12-.122-.118-.202-.118-.242-.04-.202-.04-.242-.04-.283.08-.646-.158.04-.158.04H45.65l-.12-.04-.157-.12-.08.08-.118.04-.237.04h-3.163l-.158-.04-.158-.04-.08-.04-.04-.04.04-.203.08-.162.116-.12.198-.122.197-.08.12-.122.08-.122V67.52l-.04-.444-.04-.162-.04-.12-.158-.243-.198-.16-.236-.202-.04-.12-.04-.162.04-.08.04-.082.117-.08.237-.08.277-.123.514-.2.475-.16.473-.124.475-.04.196.04.12.04.118.04.08.123zm.237 5.092l.277.24.237.16.08.163.078-.12.08-.082.276-.2.277-.203.08-.122.038-.16V67.56l-.04-.2-.04-.203-.077-.16-.12-.163-.118-.08-.158-.082-.198-.04h-.435l-.198.08-.04.04-.04.042-.04.242v3.11l.08.123zm4.034 0l.118.12.158.12.158.12.12.12.117-.32.238-.445.237-.485.158-.403.12-.445.04-.525-.04-.323-.04-.324-.08-.242-.118-.202-.16-.202-.157-.12-.198-.082h-.474l-.156.08-.08.04-.04.082-.038.202v2.95l.04.16.08.123zm-14.037-3.31v-.284l.077-.283.077-.243.118-.202.116-.202.308-.325.194-.12.424-.202.464-.12.463-.083h1.002l.5.082.463.08.424.203.155.12.194.163.115.162.154.162.078.243.078.243.04.283.037.284v3.484l.077.406.116.364h-1.89l-.077-.283-.038-.282-.193.163-.233.163-.23.162-.233.08-.27.08-.232.042-.54.04h-.425l-.347-.08-.346-.162-.308-.203-.233-.242-.193-.324-.114-.365-.04-.446.04-.364.077-.285.115-.283.116-.203.193-.205.194-.16.23-.124.27-.08.503-.16.578-.08.58-.084.502-.12.232-.04.153-.123.116-.162v-.364l-.08-.162-.076-.12-.155-.082-.27-.08-.31-.042h-.193l-.192.042-.154.04-.115.08-.116.122-.078.123-.077.16-.038.204h-1.775zm2.47 3.16l.308-.04.23-.08.232-.123.155-.203.116-.243.077-.323.04-.364v-.446l-.233.122-.31.08-.654.162-.31.08-.23.162-.116.08-.04.123-.077.162v.323l.078.162.077.122.077.08.116.082.154.04.31.04zm-7.197-5.106h1.884v1.075h.04l.117-.28.16-.24.195-.2.196-.16.276-.157.235-.08.316-.04.274-.04h.235l.235.04v1.793l-.353-.08h-.746l-.273.08-.235.16-.234.16-.158.238-.117.24-.078.238v3.267H30.05v-6.016zm-.89 1.165h-1.23v2.925l.04.12.08.12.08.04.078.08.12.04h.83v1.444l-.553.04-.515.04-.594-.04-.476-.08-.356-.16-.16-.08-.237-.243-.08-.16-.117-.36-.08-.48V66.18H25v-1.282h.99v-1.844h1.94v1.844h1.23v1.282zm44.043 5.496l-.194.474-.197.316-.273.277-.272.158-.312.16-.35.08h-.43l-.428.04h-.936V71.6h.662l.196-.04.117-.04.156-.04.117-.08.077-.08.078-.116.04-.158v-.118l-.04-.356-.155-.433-.273-.79-1.52-4.147h2.026l1.13 3.87 1.132-3.87h1.95l-2.302 6.477zm2.6-.494l.038-.32.04-.32.076-.322.116-.32.155-.28.192-.28.192-.242.23-.24.462-.36.423-.322.885-.52.346-.28.27-.282.115-.12.078-.16.04-.16v-.362l-.04-.16-.076-.16-.114-.12-.116-.08-.154-.08-.154-.042-.192-.04-.308.04-.23.08-.193.12-.155.202-.115.2-.077.24-.04.24v.282h-1.538v-.32l.077-.562.078-.28.076-.28.114-.202.156-.24.154-.2.192-.16.192-.16.23-.162.232-.12.27-.08.268-.08.308-.04h.308l.462.04.46.08.425.2.385.24.155.12.154.16.114.202.116.2.115.2.037.24.04.242.038.28-.038.482-.154.4-.154.32-.27.322-.27.24-.307.24-.73.482-.617.4-.268.242-.308.28h3.155v1.443H75.8zm9.267-7.015l.114.083.038.082v5.622l.037.164.074.123.265.25.225.204.076.082v.246l-.113.083-.15.08h-3.555l-.19-.08-.113-.04-.038-.042.037-.204.075-.165.152-.124.15-.122.265-.164.076-.122v-3.94l-.115-.163-.34-.288-.226-.205-.04-.083-.037-.08.037-.043.04-.08.112-.083.19-.08h.262l.19-.043.19-.08.566-.29.417-.245.378-.165.302-.123h.492l.15.04z" fill="#221F1F"/></g><g transform="translate(3 123)"><circle stroke="#FFED00" stroke-width="6" cx="37" cy="37" r="37"/><path d="M21.432 38.228c-.005 1.11.892 2.03 1.993 2.03.852 0 1.577-.552 1.862-1.31h1.845c.286.758 1.015 1.31 1.864 1.31 1.104 0 1.993-.92 1.993-2.03h-9.56zm-3.375-9.865c-.005.22-.047.56-.1.78l-.87 3.48c-.048.203-.087.548-.087.768v5.095l3.3.008.005-.724c-.004-.22.178-.386.39-.386h11.15c.218 0 .392.164.392.385v.696h9.73l.008-.697c0-.22.17-.394.38-.394h11.342c.212-.01.386.172.38.393v.715h3.394V33.39c0-.22-.033-.564-.08-.767l-.876-3.488c-.052-.212-.077-.562-.077-.782V27.12H45.62l5.86-3.982-6.89-4.68-6.877 4.68 5.865 3.982-25.546.01.025 1.233zm31.572-5.225L44.6 26.56l-5.044-3.422L44.6 19.71l5.03 3.428zm2.975 5.877c0-.22.177-.393.38-.393h2.202c.216 0 .43.173.475.376l.793 3.422c.044.203-.085.384-.297.384h-3.165c-.212 0-.395-.18-.395-.393l.006-3.394zm-30.74 3.405c0 .213-.174.384-.382.384H18.32c-.215 0-.35-.17-.3-.384l.787-3.414c.052-.21.268-.374.473-.374h2.204c.208 0 .377.163.38.383v3.405zm24.782-3.405c0-.22.17-.393.386-.393l4.293-.008c.212.008.382.18.382.4l.003 3.397c-.003.214-.173.395-.385.395h-4.293c-.217 0-.386-.18-.386-.393v-3.395zm-5.955 0c-.01-.22.168-.393.38-.393h4.293c.212 0 .386.173.386.393v3.396c0 .214-.173.395-.38.395h-4.297c-.213 0-.38-.18-.38-.393v-3.395zm-5.96 0c.003-.22.176-.383.38-.393h4.298c.213 0 .386.173.386.393v3.405c0 .203-.18.384-.385.384h-4.297c-.203 0-.38-.18-.38-.393v-3.394zm-5.962 0c0-.22.174-.383.39-.393h4.293c.21.01.377.173.377.393v3.396c0 .214-.168.395-.377.395H29.16c-.216 0-.39-.17-.39-.384v-3.404zm-5.956 0c0-.21.173-.383.385-.393l4.29.01c.214 0 .383.172.383.383v3.405c0 .203-.17.384-.385.384H23.2c-.213 0-.386-.17-.382-.393l-.004-3.394zm20.503 9.213c0 1.11.884 2.03 1.994 2.03.84 0 1.57-.552 1.86-1.32h1.846c.286.768 1.01 1.32 1.862 1.32 1.1 0 1.997-.92 1.997-2.03h-9.557zm-1.017 6.13l.026-.188.025-.187.053-.16.076-.134.076-.135.102-.107.128-.108.102-.08.28-.134.306-.08.333-.054h.662l.33.054.28.053.283.134.127.08.1.107.104.108.076.106.05.16.052.16.026.187.025.188v2.032l.025.266.026.268.102.24H44.8l-.05-.187-.026-.188-.128.106-.153.106-.153.107-.153.052-.153.054-.178.027-.358.026h-.255l-.256-.054-.23-.107-.178-.135-.18-.16-.1-.215-.08-.24-.024-.294v-.24l.05-.187.077-.188.102-.134.102-.133.153-.108.13-.08.177-.054.358-.106.357-.054.383-.054.357-.08.128-.027.102-.08.076-.107.026-.16-.026-.08-.05-.107-.052-.08-.076-.054-.205-.054-.204-.027h-.125l-.102.026-.103.028-.102.053-.077.08-.05.08-.05.11-.026.132H42.3zm1.633 2.083l.204-.024.178-.053.128-.08.102-.134.077-.16.05-.215.026-.24v-.295l-.153.08-.204.053-.61.16-.18.107-.05.053-.05.08-.027.107-.025.107.025.107.026.107.05.08.05.056.078.053.102.026.203.026zm-3.4.804h-1.3l-.623-2.68-.623 2.68h-1.3l-1.22-4.047h1.3l.65 2.627h.024l.548-2.627h1.247l.57 2.627.65-2.627h1.3l-1.22 4.047zm-10.61-4.062l.08.187.025.24-.026.08.34-.24.418-.347.183-.08.157-.026.236.027.235.028.21.08.184.106.183.133.13.135.132.134.103.16.026.025.26-.24.29-.213.21-.16.207-.106.104-.025.106-.026.183.027.21.027.18.028.158.08.157.08.157.08.132.106.21.267.104.134.078.16.052.16.105.347.027.373-.026.346-.05.32-.106.293-.105.24-.13.21-.158.188-.366.426-.263.294-.21.24-.156.266-.13.293v.027l.026.054.027.108-.027.08-.078.053-.105.08-.13.026-.105-.026-.078-.053-.08-.08-.077-.133-.08-.16-.025-.133-.026-.16-.027-.184.052-.426-.105.025-.104.027h-2.17l-.08-.027-.103-.08-.053.054-.078.024-.157.027h-2.092l-.105-.026-.104-.026-.053-.028-.025-.027.026-.133.054-.107.078-.08.13-.08.132-.053.078-.08.053-.08v-1.705l-.028-.294-.026-.106-.026-.08-.105-.16-.13-.106-.156-.133-.027-.08-.027-.107.028-.053.026-.053.078-.053.157-.054.182-.08.34-.133.314-.106.315-.08.314-.027.13.028.077.027.08.026.05.08zm.157 3.36l.183.158.157.107.053.107.052-.08.052-.053.183-.134.183-.133.052-.08.027-.107v-1.572l-.027-.133-.026-.132-.054-.107-.078-.106-.08-.053-.104-.052-.13-.027h-.29l-.13.055-.026.026-.026.028-.026.16v2.052l.052.08zm2.668 0l.078.078.104.08.105.08.078.08.08-.213.156-.293.155-.32.104-.266.08-.293.024-.347-.026-.213-.027-.213-.052-.16-.078-.133-.105-.135-.104-.08-.13-.053h-.314l-.105.054-.05.026-.027.053-.026.134v1.944l.025.107.053.08zm-9.283-2.183v-.188l.05-.187.052-.16.077-.134.077-.133.205-.214.128-.08.28-.134.307-.08.305-.055h.663l.332.054.306.052.28.135.103.08.125.107.077.107.102.107.05.16.052.16.026.187.025.187v2.3l.05.267.078.24h-1.25l-.05-.187-.027-.188-.13.107-.152.105-.153.107-.153.053-.178.054-.153.026-.358.026h-.28l-.23-.053-.23-.108-.203-.134-.155-.16-.127-.215-.078-.24-.025-.294.025-.24.05-.188.078-.187.076-.134.128-.132.128-.108.152-.08.18-.054.33-.106.383-.054.383-.054.332-.08.153-.026.102-.08.077-.107v-.24l-.052-.108-.05-.08-.103-.053-.18-.055-.203-.027h-.128l-.128.026-.103.027-.077.054-.077.08-.05.08-.05.108-.026.133H23.46zm1.633 2.083l.204-.025.153-.053.153-.08.102-.134.077-.16.05-.213.027-.24v-.295l-.154.08-.204.053-.433.107-.205.053-.152.107-.077.053-.028.08-.05.107v.214l.05.107.05.08.053.055.076.053.103.028.204.026zm-4.758-3.367h1.245v.71h.026l.08-.185.104-.156.13-.13.13-.105.18-.107.157-.053.21-.026.18-.026h.156l.155.027v1.183l-.232-.053h-.493l-.182.053-.155.105-.156.105-.103.158-.08.158-.052.158v2.155H20.34V43.08zm-.59.77h-.812v1.93l.027.078.052.08.052.027.05.054.08.026h.55v.952l-.367.027-.34.025-.394-.025-.315-.053-.236-.106-.105-.052-.158-.16-.052-.104-.08-.24-.05-.316v-2.142H17V43h.655v-1.22h1.283v1.216h.812v.846zm29.126 3.625l-.128.313-.13.208-.18.184-.18.105-.206.103-.232.05h-.284l-.283.027h-.62v-1.04h.44l.128-.028.08-.026.1-.027.08-.053.05-.052.053-.078.026-.104v-.077l-.027-.235-.103-.285-.18-.52-1.008-2.736h1.34l.75 2.552.747-2.554h1.287l-1.522 4.272zm1.72-.325l.024-.212.025-.21.05-.213.078-.21.1-.186.13-.184.126-.16.15-.157.305-.24.28-.21.586-.345.23-.185.18-.185.074-.08.05-.105.026-.106v-.238l-.024-.107-.05-.105-.077-.08-.078-.053-.103-.052-.1-.027-.13-.027-.203.026-.152.053-.127.08-.104.13-.076.133-.05.158-.026.16v.185h-1.018v-.212l.05-.37.052-.185.05-.185.077-.132.102-.157.102-.133.126-.105.127-.106.153-.107.152-.08.178-.053.178-.052.205-.027h.204l.304.028.305.052.28.133.254.158.1.08.103.107.076.132.077.13.076.133.024.16.026.158.026.186-.026.317-.102.264-.102.212-.178.21-.178.16-.203.16-.484.315-.408.264-.178.16-.204.183h2.087v.952h-3.535zm6.128-4.627l.075.055.023.053v3.708l.025.11.05.08.174.163.15.136.05.053v.162l-.075.054-.1.053h-2.352l-.125-.054-.075-.027-.024-.027.025-.135.05-.107.1-.082.1-.08.175-.11.05-.08v-2.597l-.075-.108-.225-.19-.15-.135-.025-.056-.024-.053.025-.026.026-.054.076-.055.124-.054h.174l.125-.025.125-.054.373-.19.276-.16.25-.11.2-.08h.324l.1.026z" fill="#221F1F"/></g></g></svg>