<svg width="140" height="140" viewBox="0 0 140 140" xmlns="http://www.w3.org/2000/svg"><title>Tramway21</title><desc>Logo Tramway21 (an actual tramway)</desc><circle stroke="#FFED00" fill="none" stroke-width="10" cx="70" cy="70" r="65"/><path d="M39.76 73.994C39.752 76.184 41.525 78 43.7 78c1.684 0 3.118-1.09 3.68-2.588h3.648C51.594 76.91 53.034 78 54.712 78c2.183 0 3.94-1.815 3.94-4.006H39.76zm-6.67-19.457c-.01.434-.093 1.106-.196 1.54L31.17 62.94c-.093.4-.17 1.08-.17 1.514v10.044l6.526.018.008-1.428c-.008-.437.35-.76.77-.76h22.043c.43 0 .772.323.772.76v1.374h19.23l.01-1.374c0-.437.335-.775.755-.775h22.42c.42-.02.762.338.753.775v1.41H111V64.454c0-.434-.068-1.113-.162-1.514l-1.73-6.88c-.104-.417-.154-1.108-.154-1.542v-2.43h-21.38l11.582-7.855L85.54 35l-13.596 9.233 11.593 7.854-50.498.02.05 2.43zM95.5 44.233l-9.942 6.75-9.97-6.75 9.97-6.76 9.94 6.76zm5.884 11.592c0-.436.35-.777.752-.777h4.35c.43 0 .855.34.94.742l1.57 6.75c.085.4-.17.757-.59.757h-6.253c-.42 0-.78-.357-.78-.776l.01-6.69zM40.616 62.54c0 .42-.342.757-.752.757h-6.252c-.428 0-.693-.338-.598-.757l1.557-6.734c.11-.417.53-.738.94-.738h4.36c.41 0 .745.32.75.757v6.715zm48.99-6.715c0-.436.335-.777.764-.777l8.486-.014c.42.014.754.355.754.79l.01 6.697c-.01.42-.345.78-.764.78H90.37c-.43 0-.763-.354-.763-.773V55.83zm-11.77 0c-.02-.436.33-.777.75-.777h8.486c.42 0 .764.34.764.777v6.696c0 .42-.344.78-.752.78h-8.497c-.42 0-.752-.354-.752-.773V55.83zm-11.785 0c.01-.436.35-.757.76-.777h8.49c.42 0 .76.34.76.777v6.715c0 .4-.352.757-.76.757h-8.497c-.402 0-.752-.357-.752-.776v-6.69zm-11.78 0c0-.436.34-.757.77-.777h8.49c.41.02.744.34.744.777v6.696c0 .42-.332.78-.744.78h-8.49c-.43 0-.772-.34-.772-.754V55.83zm-11.77 0c0-.417.34-.757.76-.777l8.48.02c.427 0 .76.34.76.757v6.715c0 .4-.334.757-.762.757h-8.48c-.42 0-.76-.338-.753-.776l-.006-6.69zm40.527 18.17c0 2.19 1.75 4.005 3.944 4.005 1.66 0 3.098-1.09 3.67-2.604h3.65C94.85 76.91 96.28 78 97.967 78c2.176 0 3.948-1.815 3.948-4.006H83.02zM81.01 86.083l.052-.37.05-.368.1-.316.15-.27.154-.264.2-.21.253-.21.2-.16.55-.264.605-.158.657-.108h1.31l.656.106.555.104.553.264.25.158.2.21.205.21.15.213.1.318.1.315.05.37.054.367v4.005l.05.526.05.53.2.473h-2.52l-.1-.368-.05-.37-.254.21-.3.21-.306.213-.302.103-.302.106-.352.052-.707.053h-.5l-.505-.105-.454-.21-.354-.266-.35-.317-.203-.423-.15-.474-.05-.58v-.473l.1-.37.15-.37.204-.263.2-.264.305-.21.253-.16.35-.105.705-.21.708-.104.758-.106.708-.16.253-.052.2-.16.153-.21.05-.316-.05-.157-.1-.21-.103-.16-.15-.105-.402-.105-.404-.053h-.25l-.2.055-.203.052-.2.102-.153.16-.1.16-.1.21-.052.263h-2.32zm3.23 4.11l.403-.052.353-.1.253-.16.2-.26.15-.317.1-.42.05-.475v-.58l-.3.16-.41.103-1.21.318-.353.21-.1.105-.1.16-.05.21-.05.21.05.21.05.21.1.157.1.105.152.105.2.052.404.054zm-6.72 1.582h-2.57l-1.232-5.287-1.233 5.287h-2.567l-2.413-7.982h2.567l1.284 5.18h.05l1.08-5.18h2.465l1.13 5.18 1.29-5.18h2.568l-2.413 7.982zm-20.974-8.012l.155.368.06.48-.053.16.673-.476.826-.683.362-.157.31-.056.466.054.466.05.412.16.36.21.36.263.26.264.26.262.208.315.05.052.52-.473.567-.42.414-.313.416-.21.207-.05.208-.054.363.054.41.05.363.052.31.158.31.16.31.157.257.21.414.526.208.263.156.315.104.32.21.683.05.737-.052.68-.102.63-.207.58-.206.473-.26.42-.31.366-.722.84-.517.58-.413.47-.31.526-.258.58v.05l.05.106.052.21-.05.16-.154.104-.21.157-.26.053-.206-.054-.156-.106-.153-.157-.155-.264-.154-.313-.05-.262-.05-.314-.053-.37.102-.84-.208.05-.205.054H58l-.156-.052-.206-.155-.104.104-.156.05-.31.055H52.93l-.208-.054-.205-.05-.105-.054-.05-.05.05-.264.105-.21.154-.157.26-.16.26-.102.158-.156.103-.16v-3.37l-.052-.577-.05-.21-.054-.158-.206-.317-.26-.21-.308-.268-.054-.157-.053-.21.054-.107.052-.103.15-.106.31-.103.36-.157.67-.265.624-.21.62-.158.62-.053.258.052.157.052.157.052.103.158zm.31 6.622l.362.315.31.21.104.21.103-.157.103-.104.362-.27.362-.264.103-.158.052-.21v-3.1l-.052-.264-.05-.263-.104-.21-.15-.21-.154-.104L58 85.7l-.26-.05h-.568l-.26.105-.05.052-.05.052-.053.313v4.047l.1.158zm5.273 0l.15.157.204.158.206.16.156.156.155-.42.31-.578.31-.63.21-.527.154-.57.05-.684-.05-.42-.053-.42-.103-.316-.154-.264-.208-.262-.208-.156-.26-.104h-.62l-.206.105-.103.052-.052.104-.05.263v3.84l.05.21.104.154zm-18.35-4.302v-.37l.1-.368.1-.316.15-.27.15-.264.402-.42.252-.16.554-.264.605-.158.605-.108h1.31l.658.106.606.104.555.264.2.158.252.21.15.21.202.213.1.318.1.315.05.37.052.367v4.53l.1.528.15.474h-2.47l-.1-.368-.05-.37-.254.21-.304.21-.304.213-.3.102-.355.103-.3.053-.707.054h-.555l-.456-.105-.454-.21-.403-.265-.304-.317-.25-.423-.155-.474-.05-.58.05-.475.1-.37.15-.37.15-.26.253-.266.253-.21.3-.16.355-.104.658-.21.757-.108.758-.106.655-.157.303-.055.204-.16.15-.21v-.475l-.1-.21-.1-.16-.203-.104-.35-.106-.405-.053h-.25l-.253.057-.2.052-.15.104-.154.158-.1.16-.1.21-.053.265h-2.32zM47 90.193l.404-.052.302-.1.3-.16.203-.26.153-.317.1-.42.05-.475v-.58l-.304.16-.403.103-.857.21-.403.108-.303.21-.15.105-.05.16-.103.21v.42l.104.21.1.157.1.105.15.105.203.052.402.054zM37.6 83.55h2.463v1.4h.05l.156-.363.2-.31.255-.26.257-.207.36-.208.306-.104.41-.05.36-.054h.31l.306.053v2.33l-.464-.102h-.97l-.36.103-.307.208-.307.207-.207.31-.157.312-.103.31v4.25H37.6V83.55zm-1.164 1.518H34.83v3.807l.054.155.103.156.104.052.11.105.155.052h1.088v1.877l-.724.052-.674.052-.78-.052-.62-.105-.466-.21-.208-.11-.31-.312-.106-.21-.155-.468-.104-.625V85.06H31V83.4h1.294V81h2.537v2.4h1.61v1.667zm57.575 7.15l-.25.617-.254.41-.355.36-.36.206-.406.21-.457.104h-.56l-.56.05H89.58V92.12h.866l.256-.054.153-.05.203-.052.153-.1.1-.103.1-.152.06-.204v-.155l-.054-.46-.202-.567-.356-1.027-1.99-5.393h2.653L93 88.836l1.48-5.033h2.55l-3.01 8.425zm3.4-.642l.05-.417.05-.42.1-.42.15-.416.2-.366.256-.366.25-.313.302-.31.604-.47.55-.417 1.16-.678.45-.366.353-.36.15-.16.1-.21.05-.205v-.47l-.05-.21-.1-.208-.15-.156-.15-.105-.2-.104-.2-.05-.25-.05-.404.05-.3.105-.253.156-.202.26-.15.26-.1.315-.05.313v.362h-2.01v-.416l.1-.73.1-.365.1-.366.15-.26.202-.313.2-.26.253-.21.25-.205.3-.21.304-.155.352-.105.352-.104.403-.05h.404l.6.05.603.1.555.26.503.315.2.156.2.21.15.26.153.26.15.26.05.316.052.313.05.363-.05.626-.2.523-.204.416-.35.416-.35.312-.4.31-.958.625-.804.52-.35.315-.402.366h4.124v1.877h-6.99zm12.117-9.125l.15.11.05.11v7.312l.048.214.1.16.347.32.296.268.1.11v.32l-.15.106-.196.107h-4.65l-.25-.106-.15-.052-.045-.053.048-.267.1-.213.197-.16.196-.16.346-.216.1-.16v-5.13l-.15-.213-.442-.374-.298-.267-.05-.107-.048-.11.048-.056.05-.107.148-.107.25-.103h.344l.247-.055.25-.105.74-.372.547-.32.494-.213.394-.16h.644l.196.053z" fill="#221F1F"/></svg>