<svg width="140" height="140" viewBox="0 0 140 140" xmlns="http://www.w3.org/2000/svg"><title>Tramway21</title><desc>Logo Tramway21 (an actual tramway)</desc><circle stroke="#FFED00" fill="none" stroke-width="10" cx="70" cy="70" r="65"/><path d="M39.76 73.994C39.752 76.184 41.525 78 43.7 78c1.684 0 3.118-1.09 3.68-2.588h3.648C51.594 76.91 53.034 78 54.712 78c2.183 0 3.94-1.815 3.94-4.006H39.76zm-6.67-19.457c-.01.434-.093 1.106-.196 1.54L31.17 62.94c-.093.4-.17 1.08-.17 1.514v10.044l6.526.018.008-1.428c-.008-.437.35-.76.77-.76h22.043c.43 0 .772.323.772.76v1.374H80.35l.015-1.374c0-.437.334-.775.754-.775h22.42c.42-.02.763.338.754.775v1.41H111V64.454c0-.434-.068-1.113-.162-1.514l-1.73-6.88c-.104-.417-.154-1.108-.154-1.542v-2.43h-21.38l11.582-7.855L85.54 35l-13.596 9.233 11.593 7.854-50.498.02.05 2.43zM95.5 44.233l-9.942 6.75-9.97-6.75 9.97-6.76 9.94 6.76zm5.884 11.592c0-.436.35-.777.752-.777h4.35c.43 0 .855.34.94.742l1.57 6.75c.085.4-.17.757-.59.757h-6.253c-.42 0-.78-.357-.78-.776l.01-6.694zM40.616 62.54c0 .42-.342.757-.752.757h-6.252c-.428 0-.693-.338-.598-.757l1.557-6.734c.106-.417.53-.738.937-.738h4.358c.41 0 .745.32.752.757v6.715zm48.99-6.715c0-.436.335-.777.764-.777l8.486-.014c.42.014.754.355.754.79l.01 6.697c-.01.42-.345.778-.764.778H90.37c-.43 0-.763-.357-.763-.776v-6.695zm-11.77 0c-.02-.436.33-.777.75-.777h8.486c.42 0 .764.34.764.777v6.696c0 .42-.344.778-.752.778h-8.497c-.42 0-.752-.357-.752-.776v-6.695zm-11.785 0c.01-.436.35-.757.754-.777H75.3c.42 0 .76.34.76.777v6.715c0 .4-.352.757-.76.757h-8.497c-.402 0-.752-.357-.752-.776v-6.694zm-11.78 0c0-.436.34-.757.77-.777h8.485c.412.02.744.34.744.777v6.696c0 .42-.333.778-.745.778H55.04c-.43 0-.772-.338-.772-.757v-6.714zm-11.776 0c0-.417.34-.757.76-.777l8.48.02c.428 0 .762.34.762.757v6.715c0 .4-.334.757-.762.757h-8.48c-.42 0-.76-.338-.753-.776l-.006-6.694zm40.528 18.17c0 2.19 1.75 4.005 3.944 4.005 1.66 0 3.098-1.09 3.672-2.604h3.65C94.85 76.91 96.28 78 97.966 78c2.176 0 3.948-1.815 3.948-4.006H83.02zM81.01 86.083l.052-.37.05-.368.1-.316.15-.266.154-.263.2-.21.253-.21.2-.16.554-.263.606-.158.658-.107h1.31l.656.106.555.104.553.264.252.157.2.21.204.21.15.213.1.316.1.316.05.37.053.367v4.006l.05.526.05.527.202.473h-2.522l-.1-.368-.05-.37-.254.212-.3.21-.306.212-.302.103-.302.105-.352.052-.707.053h-.502l-.505-.106-.454-.21-.355-.265-.352-.317-.202-.423-.15-.474-.05-.58v-.474l.1-.37.15-.37.204-.263.2-.265.303-.21.253-.158.352-.105.705-.21.707-.107.757-.105.708-.158.253-.053.2-.16.154-.21.05-.317-.05-.158-.1-.21-.103-.16-.15-.105-.403-.106-.404-.053h-.25l-.203.055-.204.053-.2.105-.153.158-.1.16-.1.21-.052.264h-2.32zm3.23 4.11l.403-.052.353-.103.253-.16.2-.262.15-.317.1-.42.05-.475v-.58l-.3.16-.405.103-1.21.317-.353.21-.1.105-.102.16-.05.21-.05.21.05.21.05.212.102.157.1.106.152.105.2.053.405.054zm-6.72 1.582h-2.57l-1.232-5.287-1.233 5.287h-2.567l-2.413-7.982h2.567l1.284 5.18h.05l1.08-5.18h2.465l1.13 5.18 1.285-5.18h2.568l-2.413 7.982zm-20.974-8.012l.155.368.054.474-.052.16.673-.475.827-.684.362-.157.31-.055.466.054.465.05.413.158.362.21.36.264.26.264.26.262.206.316.05.052.52-.473.567-.42.414-.315.414-.21.207-.052.208-.053.362.053.413.052.362.052.31.158.31.158.31.158.257.21.413.526.208.263.156.314.103.316.206.683.052.736-.052.682-.103.63-.207.58-.207.473-.26.42-.31.367-.723.84-.517.58-.414.473-.31.525-.258.58v.05l.05.106.053.21-.05.158-.155.105-.208.158-.258.052-.208-.053-.156-.105-.154-.158-.156-.263-.155-.313-.052-.263-.05-.315-.053-.37.103-.84-.207.05-.205.055h-4.29l-.156-.053-.207-.156-.104.105-.156.05-.31.055H52.93l-.208-.053-.205-.05-.105-.054-.05-.052.05-.263.105-.21.154-.157.26-.158.257-.104.156-.158.103-.158V86.81l-.052-.577-.05-.21-.054-.158-.207-.316-.26-.21-.308-.265-.052-.157-.053-.21.053-.107.052-.103.154-.106.31-.105.36-.157.67-.262.623-.21.62-.158.62-.052.258.052.156.053.156.053.103.158zm.31 6.622l.362.315.31.21.104.21.103-.157.103-.104.362-.266.362-.263.103-.157.052-.21v-3.1l-.052-.263-.05-.262-.104-.21-.154-.21-.155-.105-.205-.106-.26-.052h-.567l-.26.105-.05.053-.052.052-.052.315v4.048l.103.157zm5.273 0l.153.157.206.158.206.16.155.156.156-.42.31-.578.31-.63.207-.527.156-.576.05-.683-.05-.42-.053-.42-.104-.316-.154-.263-.208-.262-.207-.157-.26-.104h-.62l-.206.105-.104.054-.052.104-.05.263v3.84l.05.21.104.156zm-18.35-4.302v-.37l.1-.368.1-.316.15-.266.154-.263.403-.42.252-.16.554-.263.605-.158.605-.107h1.31l.656.106.606.104.555.264.203.157.252.21.15.21.203.213.1.316.1.316.05.37.052.367v4.532l.1.527.152.473h-2.47l-.102-.368-.05-.37-.253.212-.304.21-.302.212-.3.103-.355.105-.302.052-.706.053h-.555l-.454-.106-.453-.21-.403-.265-.303-.317-.25-.423-.153-.474-.05-.58.05-.474.1-.37.152-.37.15-.263.252-.265.253-.21.302-.158.353-.105.657-.21.756-.107.757-.105.655-.158.303-.053.202-.16.15-.21v-.475l-.1-.21-.1-.16-.203-.105-.352-.106-.404-.053h-.25l-.252.055-.202.053-.15.105-.153.158-.1.16-.1.21-.052.264h-2.32zm3.227 4.11l.404-.052.303-.103.302-.16.202-.262.152-.317.1-.42.05-.475v-.58l-.303.16-.403.103-.857.21-.404.107-.302.21-.15.105-.05.16-.103.21v.42l.102.212.1.157.1.106.15.105.204.053.403.054zM37.6 83.55h2.463v1.4h.05l.156-.363.204-.31.256-.26.258-.207.36-.208.306-.104.41-.05.36-.054h.308l.307.053v2.33l-.464-.102h-.974l-.36.103-.307.208-.307.207-.207.31-.152.312-.103.31v4.25H37.6V83.55zm-1.164 1.518H34.83v3.807l.054.155.103.156.104.052.105.105.155.052h1.087v1.877l-.725.052-.673.052-.78-.052-.62-.105-.466-.21-.207-.104-.31-.313-.105-.21-.155-.468-.104-.625v-4.223H31V83.4h1.294V81h2.537v2.4h1.608v1.667zm57.575 7.15l-.254.617-.255.41-.355.36-.358.206-.407.206-.457.103h-.56l-.56.05h-1.225v-2.054h.866l.256-.053.153-.05.203-.052.153-.102.1-.102.1-.154.054-.204v-.155l-.053-.46-.202-.566-.357-1.027-1.99-5.394h2.653l1.478 5.034 1.48-5.034h2.55l-3.01 8.425zm3.397-.642l.05-.417.05-.418.1-.416.152-.417.2-.366.252-.366.25-.313.302-.312.604-.47.552-.416 1.157-.678.45-.366.354-.364.15-.157.1-.21.05-.207v-.47l-.05-.21-.1-.208-.15-.156-.15-.105-.202-.104-.2-.052-.25-.05-.403.05-.3.106-.253.156-.202.26-.15.26-.1.314-.052.313v.364h-2.01v-.418l.1-.73.1-.365.1-.365.15-.26.203-.313.2-.26.253-.21.252-.207.3-.21.303-.155.352-.105.352-.104.403-.052h.402l.602.052.602.103.555.26.502.314.2.156.2.21.15.26.153.26.15.26.05.314.052.313.05.365-.05.626-.2.524-.204.416-.35.417-.352.312-.4.312-.957.625-.804.52-.35.315-.404.365h4.124v1.877h-6.99zm12.115-9.125l.15.108.05.106v7.313l.048.214.1.16.346.32.296.268.1.107v.32l-.15.107-.196.107h-4.647l-.25-.107-.15-.052-.046-.053.048-.267.1-.213.197-.16.196-.16.346-.215.1-.16v-5.124l-.15-.213-.443-.374-.298-.267-.05-.107-.048-.106.048-.055.05-.107.148-.107.25-.104h.344l.247-.054.25-.105.74-.374.545-.32.494-.213.394-.16h.644l.196.053z" fill="#221F1F"/></svg>